<svg xmlns="http://www.w3.org/2000/svg" width="10" height="15" viewBox="0 0 10 15">
  <path id="arabic-icon" d="M9.555-3.768q-.145.483-.434,1.322A15.163,15.163,0,0,0,5.29-1.125a5.575,5.575,0,0,0-2,1.689,3.279,3.279,0,0,0-.6,1.815A3.756,3.756,0,0,0,2.953,3.91a3.465,3.465,0,0,0,.675,1.007,5.885,5.885,0,0,0,3.518,1.49q1.06.147,2.12.21l.53.042q.651.021,1.446.126l-.12.315a4.98,4.98,0,0,0-1.229.168,6.548,6.548,0,0,0-1.06.42A6.021,6.021,0,0,1,7.784,8.1a4.753,4.753,0,0,1-1.241.136,6.2,6.2,0,0,1-2.2-.378A5.117,5.117,0,0,1,2.591,6.763,4.03,4.03,0,0,1,1.242,3.742a4.908,4.908,0,0,1,.048-.566,6.823,6.823,0,0,1,1-2.759A8.984,8.984,0,0,1,4.061-1.691a4.532,4.532,0,0,1-1.084-.724,1.891,1.891,0,0,1-.627-.955,2.248,2.248,0,0,1-.048-.4,2.658,2.658,0,0,1,.675-1.657,3.984,3.984,0,0,1,1.108-.944,2.6,2.6,0,0,1,1.325-.4,5.069,5.069,0,0,1,1.373.22,4.611,4.611,0,0,1,1.4.661l-.361.462a4.99,4.99,0,0,0-1.06-.1,6.558,6.558,0,0,0-1.349.147,4.647,4.647,0,0,0-1.2.42,4.77,4.77,0,0,0-.916.671A3.373,3.373,0,0,0,5.7-2.614Q7.314-3.139,9.555-3.768Z" transform="translate(-1.242 6.768)" fill="#0071bc"/>
</svg>
