<?xml version="1.0" encoding="UTF-8" standalone="no"?>
<!DOCTYPE svg PUBLIC "-//W3C//DTD SVG 1.1//EN" "http://www.w3.org/Graphics/SVG/1.1/DTD/svg11.dtd">


<svg xmlns="http://www.w3.org/2000/svg" xmlns:xlink="http://www.w3.org/1999/xlink" width="615" height="610" viewBox="0 0 615 610">
  <defs>
    <linearGradient id="linear-gradient" x1="0.546" y1="0.694" x2="1" y2="0.965" gradientUnits="objectBoundingBox">
      <stop offset="0" stop-color="#7ac943"/>
      <stop offset="1" stop-color="#eff8ea"/>
    </linearGradient>
    <linearGradient id="linear-gradient-2" x1="0.618" y1="0.607" x2="1" y2="1" gradientUnits="objectBoundingBox">
      <stop offset="0" stop-color="#0071bc"/>
      <stop offset="1" stop-color="#fbfeff"/>
    </linearGradient>
  </defs>
  <g id="Group_648" data-name="Group 648" transform="translate(336 -80.393)">
    <g id="logo-in-bg" transform="translate(50 -210.607)">
      <path id="Path_3739" data-name="Path 3739" d="M292.215,119.212a95.98,95.98,0,0,0,1.405-17.14,110.766,110.766,0,0,0-1.405-17.14A101.713,101.713,0,0,0,194.221,0h-4.855a101.68,101.68,0,0,0-69.63,29.931L27.62,122.154h0l28.874,28.908h0l91.988-92.1a61.242,61.242,0,0,1,86.622,86.6L85.241,295.344,289.787,500V442.185l-146.8-146.841,120.863-121A100.867,100.867,0,0,0,292.215,119.212Z" transform="translate(-64.62 291)" opacity="0.03" fill="url(#linear-gradient)"/>
      <path id="Path_3740" data-name="Path 3740" d="M612,554.788V610h-1.144L379.735,379.866,351,408.617,552.631,610H494.914L322.4,437.368,148.741,610H91.279L351,351.116l-28.731-28.751L33.816,610H0V587.61L293.669,293.741.127,0H57.462l264.81,264.991L351,236.24,114.925,0h57.462L379.862,207.616l65.98-66.025,58.734-58.774a20.341,20.341,0,0,1,34.706,14.375,19.821,19.821,0,0,1-5.975,14.375L455.25,189.806,351.258,293.869Z" transform="translate(-386 291)" opacity="0.03" fill="url(#linear-gradient-2)"/>
    </g>
  </g>
</svg>
