<?xml version="1.0" encoding="UTF-8" standalone="no"?>
<!DOCTYPE svg PUBLIC "-//W3C//DTD SVG 1.1//EN" "http://www.w3.org/Graphics/SVG/1.1/DTD/svg11.dtd">
<svg id="expert-apps-logo-color" xmlns="http://www.w3.org/2000/svg" width="186" height="55" viewBox="0 0 186 55">
  <g id="Group_645" data-name="Group 645">
    <path id="Path_14" data-name="Path 14" d="M119.252,34.884h0a2.291,2.291,0,0,0,2.291,2.291h4.582A6.872,6.872,0,0,1,133,44.048h0a6.872,6.872,0,0,1-6.874,6.874H114.681V46.34h11.444a2.291,2.291,0,0,0,2.291-2.291h0a2.291,2.291,0,0,0-2.291-2.291h-4.582a6.872,6.872,0,0,1-6.874-6.874h0a6.872,6.872,0,0,1,6.874-6.874h6.8v4.582h-6.8A2.283,2.283,0,0,0,119.252,34.884Z" transform="translate(16.586 4.078)" fill="#0071bc"/>
    <path id="Path_15" data-name="Path 15" d="M78.686,50.91,71.32,28.01H64.836L57.47,50.91h5.018l5.591-18.272,5.59,18.272Z" transform="translate(8.258 4.078)" fill="#0071bc"/>
    <path id="Path_16" data-name="Path 16" d="M96.568,34.884a6.861,6.861,0,0,1-6.862,6.874H82.832v9.165H78.25V37.175H89.694A2.221,2.221,0,0,0,91.31,36.5a2.284,2.284,0,0,0-1.615-3.906H78.25V28.01H89.694a6.81,6.81,0,0,1,4.857,2.016,6.978,6.978,0,0,1,1.615,2.566A6.6,6.6,0,0,1,96.568,34.884Z" transform="translate(11.283 4.078)" fill="#0071bc"/>
    <path id="Path_17" data-name="Path 17" d="M114.828,34.884a6.861,6.861,0,0,1-6.862,6.874h-6.874v9.165H96.51V37.175h11.444a2.221,2.221,0,0,0,1.615-.676,2.284,2.284,0,0,0-1.615-3.906H96.51V28.01h11.444a6.81,6.81,0,0,1,4.857,2.016,6.978,6.978,0,0,1,1.615,2.566A6.6,6.6,0,0,1,114.828,34.884Z" transform="translate(13.942 4.078)" fill="#0071bc"/>
  </g>
  <g id="Group_646" data-name="Group 646">
    <path id="Path_18" data-name="Path 18" d="M62.022,8.7v4.582h14l1.352,2.3L76.022,17.88h-14v4.594H73.032l-2.772,4.582H57.44V4.11H70.282L73.054,8.7Z" transform="translate(8.192 0.598)" fill="#0071bc"/>
    <path id="Path_19" data-name="Path 19" d="M116.1,8.7v4.582h8.718V17.88H116.1v4.594h13.77v4.582H111.51V4.11h18.364V8.7Z" transform="translate(16.065 0.598)" fill="#0071bc"/>
    <path id="Path_20" data-name="Path 20" d="M111.574,11a6.875,6.875,0,0,1-6.885,6.885H97.8v9.176H93.21V13.286h11.479a2.247,2.247,0,0,0,1.627-.676A2.292,2.292,0,0,0,104.7,8.692H93.221V4.11H104.7A6.893,6.893,0,0,1,111.2,8.7,7.17,7.17,0,0,1,111.574,11Z" transform="translate(13.4 0.598)" fill="#0071bc"/>
    <path id="Path_21" data-name="Path 21" d="M141.1,17.88a6.885,6.885,0,1,0,0-13.77H129.621V8.7H141.1A2.291,2.291,0,0,1,143.391,11a2.267,2.267,0,0,1-.676,1.627,2.294,2.294,0,0,1-1.627.676H129.61v13.77H134.2V17.892h1.547l6.954,9.176h5.281l-6.954-9.176h.069Z" transform="translate(18.7 0.598)" fill="#0071bc"/>
    <path id="Path_22" data-name="Path 22" d="M164.842,4.11V8.7h-6.908V27.056h-4.594V8.7H146.49V4.11Z" transform="translate(21.158 0.598)" fill="#0071bc"/>
    <path id="Path_23" data-name="Path 23" d="M77.091,4.11H71.73l6.954,11.479L71.73,27.056h5.361l6.942-11.467Z" transform="translate(10.273 0.598)" fill="#0071bc"/>
    <path id="Path_24" data-name="Path 24" d="M89.424,4.11h5.361L87.831,15.589l6.954,11.467H89.424L82.47,15.589Z" transform="translate(11.837 0.598)" fill="#0071bc"/>
  </g>
  <g id="Group_647" data-name="Group 647">
    <path id="Path_1" data-name="Path 1" d="M26.652,39.1l2.589,2.589-7.653,7.549H16.41Z" transform="translate(2.389 5.693)" fill="#0071bc"/>
    <path id="Path_2" data-name="Path 2" d="M11.215,14.629,0,25.844V20.666L8.626,12.04Z" transform="translate(0 1.753)" fill="#7ac943"/>
    <path id="Path_3" data-name="Path 3" d="M16.119,18.909,0,35.016V29.849L13.529,16.32Z" transform="translate(0 2.376)" fill="#7ac943"/>
    <path id="Path_4" data-name="Path 4" d="M21.3,23.419,0,44.716V39.538L18.708,20.83Z" transform="translate(0 3.033)" fill="#7ac943"/>
    <path id="Path_5" data-name="Path 5" d="M11.215,14.629,0,25.844V20.666L8.626,12.04Z" transform="translate(0 1.753)" fill="#7ac943"/>
    <path id="Path_6" data-name="Path 6" d="M16.119,18.909,0,35.016V29.849L13.529,16.32Z" transform="translate(0 2.376)" fill="#7ac943"/>
    <path id="Path_7" data-name="Path 7" d="M21.3,23.419,0,44.716V39.538L18.708,20.83Z" transform="translate(0 3.033)" fill="#7ac943"/>
    <path id="Path_8" data-name="Path 8" d="M16.119,18.909,0,35.016V29.849L13.529,16.32Z" transform="translate(0 2.376)" fill="#7ac943"/>
    <path id="Path_9" data-name="Path 9" d="M11.215,14.629,0,25.844V20.666L8.626,12.04Z" transform="translate(0 1.753)" fill="#7ac943"/>
    <path id="Path_10" data-name="Path 10" d="M21.3,23.419,0,44.716V39.538L18.708,20.83Z" transform="translate(0 3.033)" fill="#7ac943"/>
    <path id="Path_11" data-name="Path 11" d="M29.241,41.689l-7.653,7.549H16.41L26.652,39.1Z" transform="translate(2.389 5.693)" fill="#0071bc"/>
    <path id="Path_12" data-name="Path 12" d="M55.149,49.959v4.972h-.1L34.219,34.207,31.63,36.8,49.8,54.931H44.6L29.052,39.386,13.4,54.931H8.225l23.4-23.313-2.589-2.589L3.047,54.931H0V52.915L26.463,26.452.011,0H5.178L29.041,23.863l2.589-2.589L10.356,0h5.178l18.7,18.7,5.946-5.946,5.293-5.293A1.833,1.833,0,0,1,48.6,8.752a1.784,1.784,0,0,1-.538,1.295l-7.034,7.045-9.371,9.371Z" fill="#0071bc"/>
    <path id="Path_13" data-name="Path 13" d="M51.345,10.677a8.587,8.587,0,0,0,.126-1.535,9.909,9.909,0,0,0-.126-1.535A9.116,9.116,0,0,0,42.559,0h-.435A9.122,9.122,0,0,0,35.88,2.681l-8.26,8.26h0l2.589,2.589h0l8.248-8.248a5.488,5.488,0,0,1,7.767,7.756L32.787,26.452l18.341,18.33V39.6L37.965,26.452,48.8,15.614A9.03,9.03,0,0,0,51.345,10.677Z" transform="translate(4.021)" fill="#7ac943"/>
  </g>
</svg>
